# xmcd
#
# Track frame offsets: 
#        150
#        18937
#        38079
#        57360
#        74269
#        92219
#        111502
#        129576
#        144307
#        159820
#        178749
#        194316
#        208797
#
# Disc length: 2938 seconds
#
# Revision: 0
# Processed by: cddbd v1.5.2PL0 Copyright (c) Steve Scherf et al.
# Submitted via: ExactAudioCopy v1.3
#
DISCID=b60b780d
DTITLE=Jonas e Rodrigo - Filmando
DYEAR=1900
DGENRE=Country
TTITLE0=Anjo
TTITLE1=Filmando
TTITLE2=Se vai rolar
TTITLE3=Primeira vez apaixonado
TTITLE4=Fim não
TTITLE5=Chorei, chorei
TTITLE6=Indecisão
TTITLE7=Mexe mais
TTITLE8=Eu vou colar
TTITLE9=Perder um grande amor
TTITLE10=Doida ela não é não
TTITLE11=Na batida do amor
TTITLE12=A mulher que eu amo
EXTD=
EXTT0=
EXTT1=
EXTT2=
EXTT3=
EXTT4=
EXTT5=
EXTT6=
EXTT7=
EXTT8=
EXTT9=
EXTT10=
EXTT11=
EXTT12=
PLAYORDER=
